<?xml version="1.0" encoding="utf-8"?>
<!-- Generator: Adobe Illustrator 23.0.3, SVG Export Plug-In . SVG Version: 6.00 Build 0)  -->
<svg version="1.1" id="Layer_1" xmlns="http://www.w3.org/2000/svg" xmlns:xlink="http://www.w3.org/1999/xlink" x="0px" y="0px"
	 viewBox="0 0 576 576.4" style="enable-background:new 0 0 576 576.4;" xml:space="preserve">
<style type="text/css">
	.st0{fill:#8E2D2D;}
	.st1{fill:#ED2100;}
</style>
<title>Asset 2</title>
<g>
	<g id="Layer_1-2">
		<path class="st0" d="M390.1,353.7v5.6c0,43,0,86.1,0,129.1c0.1,2.4-0.8,4.8-2.6,6.5c-26.2,26.1-52.3,52.2-78.3,78.5
			c-1.8,2-4.5,3.1-7.3,3c-9.7-0.2-19.4,0.1-29.1-0.2c-2.1-0.1-4.1-0.9-5.7-2.4c-26.5-26.4-52.8-52.8-79.1-79.4
			c-1.4-1.6-2.1-3.7-2.1-5.8c-0.1-43.2-0.1-86.4-0.1-129.5v-5.6c-6.7,8-12.7,15.2-18.7,22.4c-8.6,10.3-17.1,20.7-25.8,30.9
			c-1.3,1.3-3,2.1-4.9,2.2c-25.9,0.1-51.8,0.1-77.6,0c-2-0.1-3.9-0.9-5.4-2.2c-17.1-16.9-34.2-33.9-51.1-51.1
			c-1.4-1.6-2.3-3.6-2.3-5.7c-0.2-22.3-0.2-44.6,0-66.8c0.1-2.4,1.1-4.6,2.7-6.4C93.9,185.4,185.1,94.2,276.4,3
			c1.5-1.4,3.9-2.2,6.1-2.6c10.3-2,17.4,2.5,24.8,9.8C395.5,99,483.9,187.5,572.5,275.8c2.3,2.1,3.6,5.2,3.5,8.3
			c-0.2,21.9,0,43.7-0.2,65.6c-0.1,2.3-1,4.4-2.5,6.1c-16.8,17-33.7,34-50.8,50.8c-1.6,1.4-3.6,2.3-5.7,2.3
			c-22.6,0.2-45.1,0.2-67.7,0c-2.2-0.1-4.4-1-6-2.5c-16.5-16.2-32.8-32.6-49.1-48.9C392.9,356.4,391.8,355.4,390.1,353.7z
			 M361.8,289.6l2-1.4c0.9,1.6,1.9,3.1,3,4.5c28.5,28.6,57,57.2,85.6,85.9c1.7,1.8,4,2.8,6.5,2.7c16.1-0.1,32.1-0.1,48.2,0
			c2.5,0.1,4.8-0.9,6.5-2.8c10.5-10.6,21.2-21.1,31.6-31.8c1.5-1.6,2.4-3.8,2.5-6c0.2-16,0-32.1,0.2-48.1c0.1-2.9-1.1-5.7-3.3-7.6
			c-25.2-25-50.4-50.1-75.6-75.3c-23.5-23.4-47.1-46.8-70.7-70.2c-1.2-1.2-2.9-2.6-4.4-2.6c-16,0-32.1,0.3-48.1,0.2
			c-2.1-0.1-4.1-0.9-5.7-2.3c-10.8-10.5-22-20.8-32-32c-7-7.8-14.4-11.6-24.8-10.1c-3.3,0.5-5.9,1-8.3,3.4
			c-12.8,13-25.8,25.9-38.8,38.7c-1.2,1.3-2.8,2.1-4.5,2.3c-15.8,0.1-31.6,0.1-47.3-0.1c-2.7,0-4.6,0.5-6.6,2.4
			c-49,48.8-98,97.7-147,146.5c-1.4,1.5-2.2,3.3-2.3,5.3c-0.2,16.6-0.2,33.2,0,49.8c0.1,2,0.9,3.9,2.3,5.3
			c10.5,10.8,21.3,21.4,31.9,32.1c1.6,1.8,4,2.8,6.5,2.7c15.3-0.1,30.7-0.2,46.1,0c3.7,0.2,7.3-1.3,9.8-4
			c28.2-28.4,56.4-56.7,84.7-85c1.2-1.2,2.5-2.2,4.6-4c0,3,0,4.8,0,6.6c-0.1,61.3-0.2,122.6-0.3,183.9c-0.1,3,1.1,6,3.3,8
			c17,16.8,34.4,33.4,50.6,50.9c7.5,8.1,15.3,12.2,26.2,10.6c2.4-0.2,4.7-1.2,6.4-2.9c19.5-19.6,39.1-39.2,58.7-58.7
			c2.2-2.1,3.4-5,3.2-8c-0.2-61-0.3-122-0.4-183.1V289.6z"/>
		<path class="st1" d="M361.9,289.6c0,2,0,4.1,0,6.1c0.1,61,0.2,122.1,0.4,183.1c0.2,3-1,5.9-3.2,8c-19.7,19.5-39.2,39-58.7,58.7
			c-1.7,1.7-4,2.7-6.4,2.9c-10.9,1.5-18.7-2.5-26.2-10.6c-16.2-17.6-33.6-34.1-50.6-50.9c-2.2-2-3.4-5-3.3-8
			c0.2-61.3,0.3-122.6,0.3-183.9v-6.6c-2.1,1.9-3.4,2.9-4.6,4c-28.3,28.3-56.5,56.6-84.7,84.9c-2.5,2.7-6.1,4.2-9.8,4
			c-15.4-0.2-30.7-0.2-46.1,0c-2.5,0.1-4.8-0.9-6.5-2.7c-10.6-10.8-21.3-21.3-31.9-32.1c-1.3-1.5-2.1-3.3-2.3-5.3
			c-0.2-16.6-0.1-33.2,0-49.8c0.1-2,0.9-3.9,2.3-5.4c49-48.9,98-97.7,147-146.5c1.9-1.9,3.8-2.4,6.6-2.4c15.8,0.2,31.5,0.2,47.3,0.1
			c1.7-0.2,3.3-1,4.5-2.3c13-12.8,26-25.7,38.8-38.7c2.5-2.5,5-3,8.3-3.4c10.4-1.5,17.9,2.3,24.8,10.1c10,11.2,21.1,21.5,32,32
			c1.6,1.4,3.6,2.2,5.7,2.3c16,0,32.1-0.3,48.1-0.2c1.5,0,3.2,1.4,4.4,2.6c23.6,23.3,47.2,46.7,70.7,70.2
			c25.2,25.1,50.4,50.2,75.6,75.3c2.2,1.9,3.3,4.7,3.3,7.6c-0.2,16,0,32.1-0.2,48.1c-0.1,2.2-1,4.4-2.5,6
			c-10.4,10.7-21.1,21.2-31.6,31.8c-1.6,1.8-4,2.9-6.5,2.8c-16.1-0.1-32.1-0.1-48.2,0c-2.5,0.1-4.8-0.9-6.5-2.7
			c-28.5-28.7-57-57.3-85.6-85.9c-1.1-1.4-2.1-2.9-3-4.5L361.9,289.6z"/>
	</g>
</g>
</svg>
